<svg id="레이어_1" data-name="레이어 1" xmlns="http://www.w3.org/2000/svg" viewBox="0 0 200.1 57.9"><defs><style>.cls-1{fill:#007da5;}</style></defs><path class="cls-1" d="M123.3,32.2h3.6V12.6l-.2-.1-5.2.6v.8l.7.2c.9.2,1.1.4,1.1,2.1v1.4h-3.9v3.1h3.9v2.5h-3.9v3.1h3.9" transform="translate(42.4 12.2)"/><rect class="cls-1" x="145.3" y="26.7" width="16.2" height="3.2"/><path class="cls-1" d="M117.2,32.1c-6.9,0-10,2.9-10,6.8s3.1,6.8,10,6.8,10-2.7,10-6.8-3.1-6.8-10-6.8m0,10.4c-4,0-6.3-1.5-6.3-3.7s2.3-3.7,6.3-3.7,6.2,1.4,6.2,3.7-2.3,3.7-6.2,3.7" transform="translate(42.4 12.2)"/><path class="cls-1" d="M157.7,20V16.8h-4V12.6l-.2-.1-5.2.6v.8l.7.2c.9.2,1,.4,1,2.1v15h3.6V26.7h4V23.5h-4V20" transform="translate(42.4 12.2)"/><path class="cls-1" d="M144.3,31.8c-6.9,0-9.9,2.9-9.9,6.9s3,6.9,9.9,6.9,9.9-2.8,9.9-6.9-2.9-6.9-9.9-6.9m0,10.8c-3.9,0-6.2-1.5-6.2-3.8s2.2-3.9,6.2-3.9,6.1,1.5,6.1,3.9-2.2,3.8-6.1,3.8" transform="translate(42.4 12.2)"/><path class="cls-1" d="M146.7,21.7a7.81,7.81,0,0,0-7.6-8h-.4a7.73,7.73,0,0,0-8,7.5v.5a7.71,7.71,0,0,0,7.4,8h.6a7.61,7.61,0,0,0,8-7.2v-.8m-12.4,0a4.31,4.31,0,0,1,3.9-4.8h.5a4.46,4.46,0,0,1,4.4,4.5v.3a4.29,4.29,0,0,1-3.9,4.7h-.5a4.27,4.27,0,0,1-4.4-4.2v-.5" transform="translate(42.4 12.2)"/><path class="cls-1" d="M120.8,26.9c-1.4.2-2.8.3-4.3.4l.2-7.7h-3.6l-.3,8c-1.1,0-2.3.1-3.5.1l-.2-8.1h-3.6l.3,8.2h-3.5V31a126.72,126.72,0,0,0,18.5-1" transform="translate(42.4 12.2)"/><path class="cls-1" d="M98.1,12.5l-5.2.6v.7l.7.2c.9.2,1,.4,1,2.1V24H91.8V12.8h0l-.2-.1-5.2.6v.8l.7.2c.9.2,1,.4,1,2.1V33.6H77.9V27.1h7.2V23.9H77.9V18.1h7.8V14.9H73.3v.8l.5.2c.6.2.7.4.7,2.1V34.5a2.35,2.35,0,0,0,2.3,2.4H88.3V44h3.5V27.4h2.8V45h3.6V12.6" transform="translate(42.4 12.2)"/><polyline class="cls-1" points="129.5 12 135 12 135 17.2 136.7 17.2 136.7 12 142.3 12 142.3 10.5 129.5 10.5"/><path class="cls-1" d="M118.2-.6h0l-2.6.3V0l.3.1c.4,0,.5.2.5,1V3.6a1.11,1.11,0,0,0,1.1,1.1h8.3V3.2h-7.7" transform="translate(42.4 12.2)"/><path class="cls-1" d="M121.9-5.8a3.72,3.72,0,0,0-3.6-3.9h-.2A3.71,3.71,0,0,0,114.3-6v.2a3.76,3.76,0,0,0,3.5,3.9h.3a3.69,3.69,0,0,0,3.8-3.6v-.3m-5.8,0c0-1.2.6-2.4,2-2.4s2,1.1,2,2.4-.6,2.4-2,2.4-2-1.2-2-2.4" transform="translate(42.4 12.2)"/><path class="cls-1" d="M89.1-8.1v3.6a1.11,1.11,0,0,0,1.1,1.1H98V-9.6H88.6v.4h.2c.3.1.3.1.3,1.1m1.8-.1h5.5V-5H90.9Z" transform="translate(42.4 12.2)"/><path class="cls-1" d="M123.8-8.6V.7h1.7v-11h0L123-10v.4h.3c.4,0,.5.2.5,1" transform="translate(42.4 12.2)"/><path class="cls-1" d="M80.9-9.7h0l-2.4.3V-9h.3c.4,0,.5.2.5.9v.8H76.1V-9.6h0l-2.4.3v.4H74c.4,0,.5.2.5,1v4.3a1.11,1.11,0,0,0,1.1,1.1H81M79.4-4.2H76.2V-5.9h3.2Z" transform="translate(42.4 12.2)"/><path class="cls-1" d="M82.6-10.1v.4H83c.4,0,.5.2.5,1v1.5h-2v1.5h2v3.4h1.7v-8.1h-.1" transform="translate(42.4 12.2)"/><path class="cls-1" d="M82.6-1.3v.4H83c.4,0,.5.2.5,1V.4H78.4V-1.5h0l-2.5.3v.4h.3c.4,0,.5.2.5,1V3.8a1.11,1.11,0,0,0,1.1,1.1h7.4V-1.5h0M78.5,3.4V1.9h5.1V3.4Z" transform="translate(42.4 12.2)"/><path class="cls-1" d="M107.7-9.7h0l-2.5.3V-9h.3c.4,0,.5.2.5,1v.7h-3.2V-9.6h0l-2.4.3v.4h.3c.4,0,.5.2.5,1v4.4a1.11,1.11,0,0,0,1.1,1.1h5.4m-1.6-1.7h-3.2V-5.8h3.2Z" transform="translate(42.4 12.2)"/><path class="cls-1" d="M109.4-10.1v.4h.3c.4,0,.5.2.5,1v1.5h-2v1.5h2v3.4h1.7v-8.1h0" transform="translate(42.4 12.2)"/><path class="cls-1" d="M109.4-1.3v.4h.3c.4,0,.5.2.5,1V.4h-5.1V-1.5H105l-2.5.3v.4h.3c.4,0,.5.2.5,1V3.8a1.11,1.11,0,0,0,1.1,1.1h7.4V-1.5h0m-6.6,4.9V1.9h5.1V3.4Z" transform="translate(42.4 12.2)"/><path class="cls-1" d="M136.9-3c2.6,0,3.9-1.1,3.9-2.8s-1.4-2.8-3.9-2.8S133-7.5,133-5.8,134.4-3,136.9-3m0-4.3c1.5,0,2.5.6,2.5,1.6s-1,1.6-2.5,1.6-2.5-.5-2.5-1.6,1-1.6,2.5-1.6" transform="translate(42.4 12.2)"/><polyline class="cls-1" points="174.1 11.4 176.7 11.4 176.7 15.5 178.1 15.5 178.1 11.4 180.5 11.4 180.5 15.6 181.9 15.6 181.9 11.4 184.5 11.4 184.5 10.2 174.1 10.2"/><path class="cls-1" d="M151.3-8.7h0l-2,.2v.3h.3c.3,0,.4.1.4.8V.3h1.4V-3.5h1.7V-4.7h-1.7" transform="translate(42.4 12.2)"/><path class="cls-1" d="M146-.5h0l-2,.2V0h.3c.3,0,.4.1.4.8V2.3a.9.9,0,0,0,.9.9h6.2V1.9h-5.7" transform="translate(42.4 12.2)"/><path class="cls-1" d="M148.6-3.5c0-1.4-1-2.4-2.8-2.4S143-5,143-3.5A2.59,2.59,0,0,0,145.7-1h.2a2.49,2.49,0,0,0,2.8-2.2c-.1-.2-.1-.2-.1-.3m-4.3,0c0-.7.5-1.2,1.5-1.2s1.4.5,1.4,1.2a1.29,1.29,0,0,1-1.4,1.3,1.38,1.38,0,0,1-1.5-1.3" transform="translate(42.4 12.2)"/><path class="cls-1" d="M149.2-7.4h-2.7V-8.7h0l-2,.2v.3h.3c.3,0,.4.1.4.8h-2.7v1.2h6.7" transform="translate(42.4 12.2)"/><path class="cls-1" d="M153.8-9.1a12.1,12.1,0,0,1,0,12.7H155a11.31,11.31,0,0,0,0-12.7" transform="translate(42.4 12.2)"/><path class="cls-1" d="M130.9-9.1a12.1,12.1,0,0,0,0,12.7h-1.2a11.31,11.31,0,0,1,0-12.7" transform="translate(42.4 12.2)"/><path class="cls-1" d="M-18.2,11.6a13.66,13.66,0,0,0-9.8,5h0V-11.8l-.5-.3h0l-13.9,1.6v1.2l1.9.4c2.3.5,2.8,1,2.8,5.7V37.7c0,4.7-.5,5-2.8,5.7l-1.7.4V45h10.9a50.52,50.52,0,0,0,6.8.7c11.7,0,18.7-7.1,18.7-18.7,0-7.6-4.2-15.3-12.4-15.3m-4,30.8a5.43,5.43,0,0,1-5.7-5V21c0-2.2,2.1-3.3,4.2-3.3,6.1,0,8.6,7.3,8.6,13.2,0,4.4-1.2,11.6-7.1,11.6" transform="translate(42.4 12.2)"/><path class="cls-1" d="M11.7,37.6V-11.9l-.5-.3L-2.7-10.6v1.2L-.8-9C1.5-8.5,2-8,2-3.3V37.6c0,4.7-.5,5-2.8,5.7l-1.7.4v1.2H16.2V43.7l-1.7-.4c-2.3-.7-2.7-1-2.8-5.7" transform="translate(42.4 12.2)"/><path class="cls-1" d="M34.7,43.3c-2-.6-3-2.3-6.1-6.9L20,23.6l4.3-4a20.76,20.76,0,0,1,8.1-5.3l2.2-.6V12.5h-16v1.2l2.2.6c2.4.7,2.8,2.2-1.3,6.1L12,27.2,23.3,44.9h13V43.7" transform="translate(42.4 12.2)"/><path class="cls-1" d="M54.2,43.3c-2.3-.7-2.8-1-2.8-5.7V-11.9l-.4-.3L37.1-10.6v1.2L39-9c2.3.5,2.8,1,2.8,5.7V41a3.84,3.84,0,0,0,3.9,3.9H56V43.7" transform="translate(42.4 12.2)"/></svg>