<svg id="Layer_1" data-name="Layer 1" xmlns="http://www.w3.org/2000/svg" viewBox="0 0 184.24 33.39"><defs><style>.cls-1{fill:#007da5;}</style></defs><path class="cls-1" d="M882.33,537a8,8,0,0,0-5.62,2.87h0V523.5l-.27-.19h0l-8,.91v.69l1.11.23c1.34.27,1.61.58,1.6,3.29V552c0,2.72-.27,2.91-1.61,3.29l-1,.25v.7h6.29a22,22,0,0,0,3.92.38c6.73,0,10.79-4.13,10.79-10.82C889.48,541.43,887.07,537,882.33,537ZM880,554.89a3.13,3.13,0,0,1-3.28-2.87v-9.56c0-1.26,1.23-1.91,2.41-1.91,3.52,0,4.93,4.2,4.93,7.6C884,550.75,883.32,554.89,880,554.89Z" transform="translate(-868.38 -523.31)"/><path class="cls-1" d="M899.57,552l0-28.53-.27-.19-8,.91v.69l1.11.23c1.34.27,1.6.58,1.6,3.29V552c0,2.72-.27,2.91-1.61,3.29l-1,.25v.7h10.78v-.7l-1-.25C899.84,554.94,899.57,554.75,899.57,552Z" transform="translate(-868.38 -523.31)"/><path class="cls-1" d="M912.83,555.29c-1.16-.35-1.71-1.3-3.5-3.94l-5-7.38,2.47-2.28a12.44,12.44,0,0,1,4.65-3.06l1.27-.36v-.69h-9.24v.69l1.28.36c1.39.42,1.62,1.26-.77,3.49l-4.24,3.94,6.51,10.2h7.48v-.69Z" transform="translate(-868.38 -523.31)"/><path class="cls-1" d="M924.08,555.32c-1.33-.38-1.6-.57-1.6-3.29l0-28.53-.27-.19-8,.91v.69l1.11.23c1.33.27,1.6.58,1.6,3.26V554a2.25,2.25,0,0,0,2.24,2.28h5.93v-.7Z" transform="translate(-868.38 -523.31)"/><path class="cls-1" d="M1052.62,541.88V540h-2.31v-2.39l-.1-.07-3,.34v.47l.42.09c.51.1.61.22.61,1.23v8.64h2.1v-2.61h2.31V543.9h-2.31v-2Z" transform="translate(-868.38 -523.31)"/><path class="cls-1" d="M1044.9,548.68c-4,0-5.72,1.7-5.72,4s1.75,4,5.72,4,5.71-1.6,5.71-4S1048.92,548.68,1044.9,548.68Zm0,6.23c-2.26,0-3.54-.89-3.54-2.17s1.28-2.26,3.54-2.26,3.55.87,3.55,2.26S1047.17,554.91,1044.91,554.91Z" transform="translate(-868.38 -523.31)"/><path class="cls-1" d="M1046.28,542.89a4.62,4.62,0,1,0-4.61,4.61A4.4,4.4,0,0,0,1046.28,542.89Zm-7.14,0a2.52,2.52,0,0,1,2.53-2.79,2.56,2.56,0,0,1,2.51,2.79,2.53,2.53,0,1,1-5,0Z" transform="translate(-868.38 -523.31)"/><path class="cls-1" d="M1032.81,548.94h2.1V537.65l-.1-.07-3,.34v.47l.42.09c.5.1.6.22.61,1.21v.78h-2.23v1.8h2.23v1.45h-2.23v1.8h2.23Z" transform="translate(-868.38 -523.31)"/><rect class="cls-1" x="152.67" y="15.43" width="9.36" height="1.84"/><path class="cls-1" d="M1029.28,548.88c-4,0-5.79,1.68-5.79,3.9s1.77,3.91,5.79,3.91,5.79-1.54,5.79-3.91S1033.27,548.88,1029.28,548.88Zm0,6c-2.32,0-3.62-.85-3.62-2.11s1.3-2.12,3.62-2.12,3.56.79,3.56,2.12S1031.52,554.91,1029.3,554.91Z" transform="translate(-868.38 -523.31)"/><path class="cls-1" d="M1031.35,545.87c-.81.1-1.62.18-2.5.24l.15-4.45h-2.11l-.14,4.59c-.66,0-1.33.06-2,.08l-.13-4.67h-2.1l.18,4.73h-2v1.84a73.49,73.49,0,0,0,10.69-.56Z" transform="translate(-868.38 -523.31)"/><path class="cls-1" d="M1018.23,537.58l-3,.33v.47l.41.09c.5.1.6.21.59,1.21l0,4.57h-1.62v-6.5h0l-.1-.07-3,.34v.47l.41.08c.49.1.59.22.59,1.22l0,9.93h-5.91V546h4.18v-1.82h-4.18v-3.36h4.36V539h-7.16v.48l.28.08c.35.1.42.22.41,1.24v9.52a1.36,1.36,0,0,0,1.36,1.36h6.65v4.14h2v-9.6h1.62v10.21h2.06V537.65h0Z" transform="translate(-868.38 -523.31)"/><path class="cls-1" d="M988.05,549.53h0l-.1-.07-3.05.35v.48l.42.09c.51.1.61.21.61,1.23v3.09a1.36,1.36,0,0,0,1.36,1.36H997.5V554.2h-9.45Z" transform="translate(-868.38 -523.31)"/><path class="cls-1" d="M995,539.71V551.1h2.1V537.65l-.11-.07-3,.34v.47l.42.09C994.94,538.58,995,538.7,995,539.71Z" transform="translate(-868.38 -523.31)"/><path class="cls-1" d="M992.66,543.18a4.65,4.65,0,1,0-9.29,0,4.65,4.65,0,1,0,9.29,0Zm-7.1,0c0-1.5.76-2.9,2.45-2.9s2.44,1.4,2.44,2.9-.73,2.89-2.44,2.89S985.56,544.69,985.56,543.18Z" transform="translate(-868.38 -523.31)"/><path class="cls-1" d="M975.28,538.36l-.1-.07-3,.34v.46l.41.09c.49.1.59.21.59,1.2v.85H969.3v-2.87h0l-.1-.07-2.92.33v.46l.41.08c.48.1.58.21.58,1.19v5.35a1.36,1.36,0,0,0,1.36,1.36h6.65Zm-2,6.88H969.3v-2.19h3.93Z" transform="translate(-868.38 -523.31)"/><path class="cls-1" d="M977.38,537.92v.47l.41.09c.51.1.61.22.61,1.23v1.87H975.9v1.84h2.5v4.14h2.1v-9.91l-.1-.07Z" transform="translate(-868.38 -523.31)"/><path class="cls-1" d="M977.36,548.7v.48l.41.08c.51.1.61.22.61,1.23v.33h-6.26v-2.39l-.1-.07-3,.34v.48l.41.08c.51.1.61.22.61,1.23v4.41a1.36,1.36,0,0,0,1.36,1.36h9.1v-7.83l-.1-.07Zm-5.24,5.74v-1.78h6.26v1.78Z" transform="translate(-868.38 -523.31)"/><path class="cls-1" d="M959.61,548c0,2.49-1.57,4.64-4.32,4.64s-4.33-2-4.33-4.64c0-2.85,1.69-4.66,4.33-4.66S959.61,545.15,959.61,548Zm-2.05,0c0-1.76-.74-2.86-2.27-2.86S953,546.34,953,548s.81,2.82,2.25,2.82S957.56,549.67,957.56,548Zm3.66-10.12v.47l.42.09c.5.1.6.22.6,1.23v5.67H960v1.84h2.29v8.84h2.1V537.65l-.1-.07Zm-4.88,2.77V538l-.09-.07-2.92.33v.46l.4.08c.49.1.58.21.58,1.19v.71H950v1.79h10.51v-1.79Z" transform="translate(-868.38 -523.31)"/><path class="cls-1" d="M949.33,547.35v1.76H933.52v-1.76Zm-2.07,8.82h-2.09V552h-9v-1.74h11.08Zm-8.79-11.72V543h8.36v-1.64h-8.36v-1.31h8.37v-1.71H935.71v.48l.28.09c.35.1.41.21.41,1.23h0v4.63a1.36,1.36,0,0,0,1.37,1.36H947v-1.71Z" transform="translate(-868.38 -523.31)"/></svg>